<svg width="17" height="23" viewBox="0 0 17 23" fill="none" xmlns="http://www.w3.org/2000/svg">
                                        <path d="M1 11.5H10.2308C11.4548 11.5 12.6288 10.9469 13.4943 9.96231C14.3599 8.97774 14.8462 7.64239 14.8462 6.25C14.8462 4.85761 14.3599 3.52226 13.4943 2.53769C12.6288 1.55312 11.4548 1 10.2308 1H1V11.5ZM1 11.5H11.3846C12.6087 11.5 13.7826 12.0531 14.6482 13.0377C15.5137 14.0223 16 15.3576 16 16.75C16 18.1424 15.5137 19.4777 14.6482 20.4623C13.7826 21.4469 12.6087 22 11.3846 22H1V11.5Z" stroke="currentColor" stroke-width="1.5" stroke-linecap="round" stroke-linejoin="round"></path>
                                    </svg>