<svg width="17" height="25" viewBox="0 0 17 25" fill="none" xmlns="http://www.w3.org/2000/svg">
                                        <path d="M8.5 1H4.75C3.75544 1 2.80161 1.40387 2.09835 2.12276C1.39509 2.84165 1 3.81667 1 4.83333C1 5.85 1.39509 6.82502 2.09835 7.54391C2.80161 8.2628 3.75544 8.66667 4.75 8.66667M8.5 1V8.66667M8.5 1H12.25C12.7425 1 13.2301 1.09915 13.6851 1.2918C14.14 1.48444 14.5534 1.7668 14.9017 2.12276C15.2499 2.47872 15.5261 2.9013 15.7145 3.36638C15.903 3.83146 16 4.32993 16 4.83333C16 5.33673 15.903 5.83521 15.7145 6.30029C15.5261 6.76537 15.2499 7.18795 14.9017 7.54391C14.5534 7.89987 14.14 8.18223 13.6851 8.37487C13.2301 8.56751 12.7425 8.66667 12.25 8.66667M8.5 8.66667H4.75M8.5 8.66667H12.25M8.5 8.66667V16.3333M4.75 8.66667C3.75544 8.66667 2.80161 9.07053 2.09835 9.78942C1.39509 10.5083 1 11.4833 1 12.5C1 13.5167 1.39509 14.4917 2.09835 15.2106C2.80161 15.9295 3.75544 16.3333 4.75 16.3333M12.25 8.66667C11.7575 8.66667 11.2699 8.76582 10.8149 8.95846C10.36 9.1511 9.94657 9.43347 9.59835 9.78942C9.25013 10.1454 8.97391 10.568 8.78545 11.033C8.597 11.4981 8.5 11.9966 8.5 12.5C8.5 13.0034 8.597 13.5019 8.78545 13.967C8.97391 14.432 9.25013 14.8546 9.59835 15.2106C9.94657 15.5665 10.36 15.8489 10.8149 16.0415C11.2699 16.2342 11.7575 16.3333 12.25 16.3333C12.7425 16.3333 13.2301 16.2342 13.6851 16.0415C14.14 15.8489 14.5534 15.5665 14.9017 15.2106C15.2499 14.8546 15.5261 14.432 15.7145 13.967C15.903 13.5019 16 13.0034 16 12.5C16 11.9966 15.903 11.4981 15.7145 11.033C15.5261 10.568 15.2499 10.1454 14.9017 9.78942C14.5534 9.43347 14.14 9.1511 13.6851 8.95846C13.2301 8.76582 12.7425 8.66667 12.25 8.66667ZM4.75 16.3333C3.75544 16.3333 2.80161 16.7372 2.09835 17.4561C1.39509 18.175 1 19.15 1 20.1667C1 21.1833 1.39509 22.1584 2.09835 22.8772C2.80161 23.5961 3.75544 24 4.75 24C5.74456 24 6.69839 23.5961 7.40165 22.8772C8.10491 22.1584 8.5 21.1833 8.5 20.1667V16.3333M4.75 16.3333H8.5" stroke="currentColor" stroke-width="1.5" stroke-linecap="round" stroke-linejoin="round"></path>
                                    </svg>