<svg width="23" height="20" viewBox="0 0 23 20" fill="none" xmlns="http://www.w3.org/2000/svg">
                                        <path d="M22 1.9979V7.99947M22 7.99947H16.2727M22 7.99947L17.5709 3.63833C16.545 2.56276 15.2758 1.77704 13.8818 1.3545C12.4877 0.931957 11.0142 0.886355 9.59882 1.22195C8.1834 1.55755 6.87217 2.2634 5.78749 3.27365C4.70281 4.2839 3.88002 5.56562 3.39591 6.99921M1 18.0021V12.0005M1 12.0005H6.72727M1 12.0005L5.42909 16.3617C6.45499 17.4372 7.72417 18.223 9.11823 18.6455C10.5123 19.068 11.9858 19.1136 13.4012 18.778C14.8166 18.4425 16.1278 17.7366 17.2125 16.7263C18.2972 15.7161 19.12 14.4344 19.6041 13.0008" stroke="currentColor" stroke-width="1.5" stroke-linecap="round" stroke-linejoin="round"></path>
                                    </svg>